<svg width="26" height="32" viewBox="0 0 26 32" fill="none" xmlns="http://www.w3.org/2000/svg">
<path d="M13.1884 0.636719L0.618652 6.22325V14.6031C0.618652 22.3544 5.98173 29.6029 13.1884 31.3627C20.395 29.6029 25.7581 22.3544 25.7581 14.6031V6.22325L13.1884 0.636719ZM13.1884 6.08359C14.017 6.08359 14.8271 6.32932 15.5161 6.78972C16.2052 7.25011 16.7422 7.90448 17.0593 8.67009C17.3764 9.43569 17.4594 10.2781 17.2978 11.0909C17.1361 11.9037 16.737 12.6502 16.1511 13.2362C15.5651 13.8222 14.8185 14.2212 14.0058 14.3829C13.193 14.5446 12.3506 14.4616 11.585 14.1445C10.8193 13.8273 10.165 13.2903 9.70458 12.6013C9.24419 11.9123 8.99846 11.1022 8.99846 10.2735C8.99846 9.16226 9.43989 8.09654 10.2256 7.31079C11.0114 6.52503 12.0771 6.08359 13.1884 6.08359ZM13.1884 17.117C15.9816 17.117 21.5682 18.6393 21.5682 21.4186C20.6509 22.8015 19.4057 23.9358 17.9435 24.7205C16.4814 25.5052 14.8478 25.9159 13.1884 25.9159C11.529 25.9159 9.89534 25.5052 8.4332 24.7205C6.97105 23.9358 5.72582 22.8015 4.80855 21.4186C4.80855 18.6393 10.3951 17.117 13.1884 17.117Z" fill="white"/>
</svg>
