<svg width="21" height="21" viewBox="0 0 21 21" fill="none" xmlns="http://www.w3.org/2000/svg">
<mask id="path-1-inside-1_133_7429" fill="white">
<path d="M19.6887 1.34345C19.6887 1.14383 19.4891 1.04402 19.2895 0.944205C15.4967 -0.0539045 11.4044 1.24364 8.90914 4.23797L7.6116 5.73513L4.9167 5.03646C3.81878 4.63721 2.72086 5.13627 2.22181 6.13438L0.125775 9.82738C0.125775 9.82738 0.125775 9.9272 0.0259638 9.9272C-0.0738472 10.2266 0.125775 10.4263 0.425208 10.5261L3.81878 11.2247C3.51935 12.123 3.21992 13.0213 3.12011 13.9196C3.12011 14.1193 3.12011 14.2191 3.21992 14.3189L6.21425 17.2134C6.31406 17.3132 6.41387 17.3132 6.61349 17.3132C7.51179 17.2134 8.5099 17.0138 9.4082 16.7143L10.1069 20.0081C10.1069 20.2077 10.4063 20.4074 10.6059 20.4074C10.7057 20.4074 10.8056 20.4074 10.8056 20.3075L14.4986 18.2115C15.3969 17.7125 15.7961 16.6145 15.5965 15.6164L14.8978 12.7219L16.2952 11.4244C19.3893 9.12871 20.6868 5.13627 19.6887 1.34345ZM1.32351 9.72757L3.02029 6.63343C3.31973 6.03457 3.91859 5.83494 4.51746 6.03457L6.81311 6.63343L5.815 7.83116C5.21614 8.62965 4.61727 9.42814 4.21803 10.3264L1.32351 9.72757ZM14.0993 17.6126L11.0052 19.4092L10.4063 16.5147C11.3046 16.1155 12.1031 15.5166 12.9016 14.9177L14.1991 13.72L14.798 16.0157C14.798 16.6145 14.5984 17.3132 14.0993 17.6126ZM15.6963 10.9253L12.2029 14.1193C10.7057 15.4168 8.80933 16.2153 6.81311 16.4149L4.21803 13.8198C4.51746 11.8236 5.31595 9.9272 6.61349 8.43003L8.21047 6.63343L8.31028 6.53362L9.70763 4.93665C11.9035 2.34156 15.4967 1.14383 18.7904 1.8425C19.4891 5.23608 18.3912 8.72946 15.6963 10.9253ZM14.4986 4.23797C13.4006 4.23797 12.6022 5.13627 12.6022 6.13438C12.6022 7.13249 13.5005 8.03079 14.4986 8.03079C15.5965 8.03079 16.395 7.13249 16.395 6.13438C16.395 5.13627 15.5965 4.23797 14.4986 4.23797ZM14.4986 7.13249C13.9995 7.13249 13.6003 6.73324 13.6003 6.23419C13.6003 5.73513 13.9995 5.33589 14.4986 5.33589C14.9976 5.33589 15.3969 5.73513 15.3969 6.23419C15.3969 6.73324 14.9976 7.13249 14.4986 7.13249Z"/>
</mask>
<path d="M19.6887 1.34345C19.6887 1.14383 19.4891 1.04402 19.2895 0.944205C15.4967 -0.0539045 11.4044 1.24364 8.90914 4.23797L7.6116 5.73513L4.9167 5.03646C3.81878 4.63721 2.72086 5.13627 2.22181 6.13438L0.125775 9.82738C0.125775 9.82738 0.125775 9.9272 0.0259638 9.9272C-0.0738472 10.2266 0.125775 10.4263 0.425208 10.5261L3.81878 11.2247C3.51935 12.123 3.21992 13.0213 3.12011 13.9196C3.12011 14.1193 3.12011 14.2191 3.21992 14.3189L6.21425 17.2134C6.31406 17.3132 6.41387 17.3132 6.61349 17.3132C7.51179 17.2134 8.5099 17.0138 9.4082 16.7143L10.1069 20.0081C10.1069 20.2077 10.4063 20.4074 10.6059 20.4074C10.7057 20.4074 10.8056 20.4074 10.8056 20.3075L14.4986 18.2115C15.3969 17.7125 15.7961 16.6145 15.5965 15.6164L14.8978 12.7219L16.2952 11.4244C19.3893 9.12871 20.6868 5.13627 19.6887 1.34345ZM1.32351 9.72757L3.02029 6.63343C3.31973 6.03457 3.91859 5.83494 4.51746 6.03457L6.81311 6.63343L5.815 7.83116C5.21614 8.62965 4.61727 9.42814 4.21803 10.3264L1.32351 9.72757ZM14.0993 17.6126L11.0052 19.4092L10.4063 16.5147C11.3046 16.1155 12.1031 15.5166 12.9016 14.9177L14.1991 13.72L14.798 16.0157C14.798 16.6145 14.5984 17.3132 14.0993 17.6126ZM15.6963 10.9253L12.2029 14.1193C10.7057 15.4168 8.80933 16.2153 6.81311 16.4149L4.21803 13.8198C4.51746 11.8236 5.31595 9.9272 6.61349 8.43003L8.21047 6.63343L8.31028 6.53362L9.70763 4.93665C11.9035 2.34156 15.4967 1.14383 18.7904 1.8425C19.4891 5.23608 18.3912 8.72946 15.6963 10.9253ZM14.4986 4.23797C13.4006 4.23797 12.6022 5.13627 12.6022 6.13438C12.6022 7.13249 13.5005 8.03079 14.4986 8.03079C15.5965 8.03079 16.395 7.13249 16.395 6.13438C16.395 5.13627 15.5965 4.23797 14.4986 4.23797ZM14.4986 7.13249C13.9995 7.13249 13.6003 6.73324 13.6003 6.23419C13.6003 5.73513 13.9995 5.33589 14.4986 5.33589C14.9976 5.33589 15.3969 5.73513 15.3969 6.23419C15.3969 6.73324 14.9976 7.13249 14.4986 7.13249Z" fill="#0682A2"/>
<path d="M19.6887 1.34345H15.9772V1.82364L16.0994 2.28802L19.6887 1.34345ZM19.2895 0.944205L20.9494 -2.37552L20.6057 -2.54737L20.2341 -2.64516L19.2895 0.944205ZM8.90914 4.23797L11.7139 6.66879L11.7375 6.64165L11.7605 6.61406L8.90914 4.23797ZM7.6116 5.73513L6.68014 9.32792L8.90863 9.90568L10.4164 8.16596L7.6116 5.73513ZM4.9167 5.03646L3.6483 8.52457L3.81428 8.58492L3.98524 8.62925L4.9167 5.03646ZM2.22181 6.13438L5.44971 7.96643L5.49789 7.88154L5.54154 7.79424L2.22181 6.13438ZM0.125775 9.82738L-3.10213 7.99533L-3.5858 8.84751L-3.5858 9.82738L0.125775 9.82738ZM0.0259638 9.9272V6.21562H-2.64919L-3.49514 8.75349L0.0259638 9.9272ZM0.425208 10.5261L-0.748494 14.0472L-0.539262 14.1169L-0.323242 14.1614L0.425208 10.5261ZM3.81878 11.2247L7.33989 12.3984L8.66189 8.43243L4.56723 7.58941L3.81878 11.2247ZM3.12011 13.9196L-0.568765 13.5098L-0.591466 13.7141V13.9196H3.12011ZM3.21992 14.3189L0.595439 16.9434L0.617679 16.9656L0.640292 16.9875L3.21992 14.3189ZM6.21425 17.2134L8.83872 14.5889L8.81648 14.5667L8.79387 14.5448L6.21425 17.2134ZM6.61349 17.3132V21.0248H6.81906L7.02337 21.0021L6.61349 17.3132ZM9.4082 16.7143L13.039 15.9442L12.1767 11.8792L8.2345 13.1932L9.4082 16.7143ZM10.1069 20.0081H13.8184V19.6188L13.7377 19.2379L10.1069 20.0081ZM10.8056 20.3075L8.9735 17.0796L7.09398 18.1464V20.3075H10.8056ZM14.4986 18.2115L12.6961 14.967L12.6812 14.9752L12.6665 14.9836L14.4986 18.2115ZM15.5965 15.6164L19.236 14.8885L19.2216 14.8167L19.2044 14.7455L15.5965 15.6164ZM14.8978 12.7219L12.3723 10.0021L10.78 11.4806L11.2899 13.5928L14.8978 12.7219ZM16.2952 11.4244L14.0836 8.44361L13.9194 8.56543L13.7696 8.70454L16.2952 11.4244ZM1.32351 9.72757L-1.93084 7.94293L-4.34488 12.345L0.571523 13.3622L1.32351 9.72757ZM3.02029 6.63343L6.27465 8.41808L6.30852 8.35631L6.34002 8.2933L3.02029 6.63343ZM4.51746 6.03457L3.34376 9.55567L3.461 9.59475L3.58058 9.62595L4.51746 6.03457ZM6.81311 6.63343L9.66442 9.00952L13.4074 4.51791L7.74999 3.04205L6.81311 6.63343ZM5.815 7.83116L2.96369 5.45507L2.90281 5.52814L2.84575 5.60422L5.815 7.83116ZM4.21803 10.3264L3.46604 13.961L6.39496 14.567L7.6097 11.8339L4.21803 10.3264ZM14.0993 17.6126L15.963 20.8224L15.9861 20.809L16.0089 20.7953L14.0993 17.6126ZM11.0052 19.4092L7.37058 20.1612L8.41423 25.2055L12.8689 22.619L11.0052 19.4092ZM10.4063 16.5147L8.8989 13.123L6.16573 14.3378L6.77171 17.2667L10.4063 16.5147ZM12.9016 14.9177L15.1285 17.887L15.28 17.7734L15.4191 17.645L12.9016 14.9177ZM14.1991 13.72L17.7905 12.7831L16.2285 6.7956L11.6816 10.9927L14.1991 13.72ZM14.798 16.0157H18.5096V15.5395L18.3894 15.0788L14.798 16.0157ZM15.6963 10.9253L13.3518 8.04797L13.2698 8.11474L13.1918 8.18606L15.6963 10.9253ZM12.2029 14.1193L14.6337 16.9241L14.671 16.8918L14.7074 16.8585L12.2029 14.1193ZM6.81311 16.4149L4.18864 19.0394L5.43232 20.2831L7.18243 20.1081L6.81311 16.4149ZM4.21803 13.8198L0.547518 13.2692L0.269819 15.1206L1.59355 16.4443L4.21803 13.8198ZM6.61349 8.43003L3.83943 5.9642L3.82395 5.98161L3.8087 5.99921L6.61349 8.43003ZM8.21047 6.63343L5.58598 4.00896L5.50886 4.08608L5.4364 4.1676L8.21047 6.63343ZM8.31028 6.53362L10.9348 9.15809L11.0221 9.07071L11.1035 8.97771L8.31028 6.53362ZM9.70763 4.93665L12.5009 7.38073L12.5211 7.35759L12.541 7.33411L9.70763 4.93665ZM18.7904 1.8425L22.4258 1.09406L21.9361 -1.28439L19.5606 -1.78828L18.7904 1.8425ZM19.6887 1.34345H23.4003C23.4003 -0.222888 22.5337 -1.25022 21.9401 -1.74491C21.6666 -1.97277 21.4136 -2.12483 21.2659 -2.20853C21.1206 -2.29088 20.9825 -2.35895 20.9494 -2.37552L19.2895 0.944205L17.6296 4.26394C17.8346 4.36641 17.5096 4.22577 17.1879 3.95771C16.986 3.78949 16.676 3.48856 16.4161 3.02438C16.1383 2.52845 15.9772 1.95016 15.9772 1.34345H19.6887ZM19.2895 0.944205L20.2341 -2.64516C15.06 -4.00675 9.48373 -2.2492 6.05784 1.86188L8.90914 4.23797L11.7605 6.61406C13.3251 4.73648 15.9333 3.89894 18.3449 4.53357L19.2895 0.944205ZM8.90914 4.23797L6.10435 1.80715L4.80681 3.30431L7.6116 5.73513L10.4164 8.16596L11.7139 6.66879L8.90914 4.23797ZM7.6116 5.73513L8.54307 2.14234L5.84817 1.44367L4.9167 5.03646L3.98524 8.62925L6.68014 9.32792L7.6116 5.73513ZM4.9167 5.03646L6.18511 1.54835C3.19631 0.461512 0.186306 1.90605 -1.09792 4.47451L2.22181 6.13438L5.54154 7.79424C5.41237 8.05258 5.16287 8.32302 4.78498 8.48213C4.39033 8.64829 3.97171 8.64217 3.6483 8.52457L4.9167 5.03646ZM2.22181 6.13438L-1.0061 4.30233L-3.10213 7.99533L0.125775 9.82738L3.35368 11.6594L5.44971 7.96643L2.22181 6.13438ZM0.125775 9.82738C-3.5858 9.82738 -3.5858 9.82557 -3.58579 9.82375C-3.58579 9.82315 -3.58579 9.82133 -3.58579 9.82011C-3.58578 9.81768 -3.58578 9.81524 -3.58577 9.81279C-3.58575 9.80789 -3.58572 9.80296 -3.58568 9.798C-3.5856 9.78808 -3.58548 9.77801 -3.58532 9.76781C-3.58499 9.74743 -3.58448 9.72643 -3.58376 9.70485C-3.58233 9.66181 -3.58003 9.61584 -3.57656 9.56723C-3.56971 9.47129 -3.5578 9.35845 -3.53686 9.2328C-3.4979 8.99908 -3.41308 8.63071 -3.20643 8.21742C-2.99251 7.78959 -2.61335 7.24886 -1.97514 6.82338C-1.31368 6.38242 -0.598548 6.21562 0.0259638 6.21562V9.9272V13.6388C0.700381 13.6388 1.45295 13.4595 2.14247 12.9998C2.80876 12.5556 3.20663 11.9899 3.43303 11.5372C3.65215 11.0989 3.74321 10.7056 3.78529 10.4532C3.80779 10.3181 3.82048 10.1975 3.82772 10.0961C3.83139 10.0448 3.83378 9.99666 3.83526 9.95216C3.83601 9.92985 3.83653 9.90829 3.83686 9.88753C3.83703 9.87714 3.83715 9.86693 3.83723 9.85691C3.83727 9.8519 3.8373 9.84694 3.83732 9.84202C3.83733 9.83956 3.83733 9.83711 3.83734 9.83467C3.83734 9.83345 3.83734 9.83163 3.83734 9.83102C3.83735 9.8292 3.83735 9.82739 0.125775 9.82738ZM0.0259638 9.9272L-3.49514 8.75349C-3.90878 9.99439 -3.73872 11.4013 -2.89339 12.5284C-2.19392 13.461 -1.28407 13.8686 -0.748494 14.0472L0.425208 10.5261L1.59891 7.00496C1.83506 7.08367 2.49538 7.34155 3.04513 8.07454C3.34432 8.47347 3.58506 8.98532 3.67464 9.58248C3.76337 10.174 3.68137 10.698 3.54707 11.1009L0.0259638 9.9272ZM0.425208 10.5261L-0.323242 14.1614L3.07033 14.8601L3.81878 11.2247L4.56723 7.58941L1.17366 6.89074L0.425208 10.5261ZM3.81878 11.2247L0.297677 10.051C0.0239379 10.8723 -0.417788 12.151 -0.568765 13.5098L3.12011 13.9196L6.80898 14.3295C6.85762 13.8917 7.01476 13.3738 7.33989 12.3984L3.81878 11.2247ZM3.12011 13.9196H-0.591466C-0.591466 13.9485 -0.592067 14.0724 -0.586941 14.2005C-0.581549 14.3353 -0.566818 14.5851 -0.506912 14.8846C-0.355323 15.6425 0.0110823 16.359 0.595439 16.9434L3.21992 14.3189L5.84439 11.6944C6.04521 11.8952 6.26115 12.1634 6.44245 12.5059C6.62365 12.8481 6.72041 13.1705 6.77208 13.4288C6.81951 13.6659 6.828 13.847 6.83027 13.9039C6.83228 13.954 6.83168 13.9906 6.83168 13.9196H3.12011ZM3.21992 14.3189L0.640292 16.9875L3.63462 19.882L6.21425 17.2134L8.79387 14.5448L5.79954 11.6503L3.21992 14.3189ZM6.21425 17.2134L3.58977 19.8379C4.17413 20.4222 4.8906 20.7886 5.64853 20.9402C5.94806 21.0001 6.19778 21.0149 6.33258 21.0203C6.46074 21.0254 6.58462 21.0248 6.61349 21.0248V17.3132V13.6016C6.54255 13.6016 6.5791 13.601 6.62928 13.603C6.6861 13.6053 6.8672 13.6138 7.10435 13.6612C7.36266 13.7129 7.68502 13.8097 8.02727 13.9909C8.36971 14.1722 8.6379 14.3881 8.83872 14.5889L6.21425 17.2134ZM6.61349 17.3132L7.02337 21.0021C8.13664 20.8784 9.39619 20.6307 10.5819 20.2355L9.4082 16.7143L8.2345 13.1932C7.62361 13.3969 6.88694 13.5484 6.20362 13.6243L6.61349 17.3132ZM9.4082 16.7143L5.77741 17.4845L6.47609 20.7783L10.1069 20.0081L13.7377 19.2379L13.039 15.9442L9.4082 16.7143ZM10.1069 20.0081H6.39531C6.39531 21.877 7.63757 22.9391 8.05459 23.2518C8.57676 23.6435 9.46569 24.1189 10.6059 24.1189V20.4074V16.6958C11.5466 16.6958 12.186 17.0714 12.5085 17.3133C12.7166 17.4694 12.9939 17.7192 13.245 18.0959C13.4916 18.4658 13.8184 19.1234 13.8184 20.0081H10.1069ZM10.6059 20.4074V24.1189C10.6131 24.1189 10.6553 24.119 10.7021 24.1183C10.7511 24.1175 10.8304 24.1155 10.9261 24.1091C11.086 24.0985 11.4658 24.0663 11.9168 23.916C12.3896 23.7584 13.1232 23.4088 13.7181 22.6439C14.338 21.847 14.5171 20.9743 14.5171 20.3075H10.8056H7.09398C7.09398 19.6907 7.26064 18.8554 7.85867 18.0865C8.43174 17.3498 9.13413 17.0189 9.5695 16.8738C9.98311 16.7359 10.3192 16.71 10.4324 16.7024C10.5547 16.6943 10.6573 16.6958 10.6059 16.6958V20.4074ZM10.8056 20.3075L12.6376 23.5354L16.3306 21.4394L14.4986 18.2115L12.6665 14.9836L8.9735 17.0796L10.8056 20.3075ZM14.4986 18.2115L16.3011 21.456C18.8588 20.035 19.6926 17.1716 19.236 14.8885L15.5965 15.6164L11.957 16.3443C11.9154 16.1366 11.9321 15.9224 12.0196 15.7067C12.112 15.4787 12.3185 15.1768 12.6961 14.967L14.4986 18.2115ZM15.5965 15.6164L19.2044 14.7455L18.5058 11.851L14.8978 12.7219L11.2899 13.5928L11.9885 16.4873L15.5965 15.6164ZM14.8978 12.7219L17.4233 15.4417L18.8207 14.1442L16.2952 11.4244L13.7696 8.70454L12.3723 10.0021L14.8978 12.7219ZM16.2952 11.4244L18.5067 14.4051C22.8942 11.1499 24.6379 5.56625 23.2781 0.398879L19.6887 1.34345L16.0994 2.28802C16.7358 4.70629 15.8844 7.10755 14.0836 8.44361L16.2952 11.4244ZM1.32351 9.72757L4.57786 11.5122L6.27465 8.41808L3.02029 6.63343L-0.234057 4.84879L-1.93084 7.94293L1.32351 9.72757ZM3.02029 6.63343L6.34002 8.2933C6.10333 8.76669 5.645 9.24885 4.97789 9.50299C4.33863 9.74651 3.74879 9.69068 3.34376 9.55567L4.51746 6.03457L5.69116 2.51346C4.68727 2.17883 3.49855 2.123 2.33529 2.56615C1.14417 3.01991 0.236692 3.90131 -0.299436 4.97357L3.02029 6.63343ZM4.51746 6.03457L3.58058 9.62595L5.87623 10.2248L6.81311 6.63343L7.74999 3.04205L5.45434 2.44319L4.51746 6.03457ZM6.81311 6.63343L3.9618 4.25734L2.96369 5.45507L5.815 7.83116L8.66631 10.2073L9.66442 9.00952L6.81311 6.63343ZM5.815 7.83116L2.84575 5.60422C2.29324 6.34089 1.42524 7.47153 0.826349 8.81903L4.21803 10.3264L7.6097 11.8339C7.8093 11.3848 8.13903 10.9184 8.78426 10.0581L5.815 7.83116ZM4.21803 10.3264L4.97001 6.69184L2.07549 6.09298L1.32351 9.72757L0.571523 13.3622L3.46604 13.961L4.21803 10.3264ZM14.0993 17.6126L12.2356 14.4029L9.14147 16.1995L11.0052 19.4092L12.8689 22.619L15.963 20.8224L14.0993 17.6126ZM11.0052 19.4092L14.6398 18.6573L14.0409 15.7627L10.4063 16.5147L6.77171 17.2667L7.37058 20.1612L11.0052 19.4092ZM10.4063 16.5147L11.9137 19.9064C13.2612 19.3075 14.3919 18.4395 15.1285 17.887L12.9016 14.9177L10.6746 11.9485C9.81434 12.5937 9.34799 12.9234 8.8989 13.123L10.4063 16.5147ZM12.9016 14.9177L15.4191 17.645L16.7166 16.4473L14.1991 13.72L11.6816 10.9927L10.3841 12.1905L12.9016 14.9177ZM14.1991 13.72L10.6077 14.6569L11.2066 16.9525L14.798 16.0157L18.3894 15.0788L17.7905 12.7831L14.1991 13.72ZM14.798 16.0157H11.0864C11.0864 15.9387 11.0942 15.7917 11.1794 15.5739C11.26 15.3679 11.5209 14.8313 12.1897 14.43L14.0993 17.6126L16.0089 20.7953C17.1768 20.0946 17.787 19.0589 18.0922 18.2789C18.402 17.4873 18.5096 16.6915 18.5096 16.0157H14.798ZM15.6963 10.9253L13.1918 8.18606L9.69845 11.38L12.2029 14.1193L14.7074 16.8585L18.2007 13.6646L15.6963 10.9253ZM12.2029 14.1193L9.77209 11.3145C8.87454 12.0923 7.70523 12.5956 6.4438 12.7218L6.81311 16.4149L7.18243 20.1081C9.91343 19.835 12.5369 18.7413 14.6337 16.9241L12.2029 14.1193ZM6.81311 16.4149L9.43759 13.7904L6.8425 11.1953L4.21803 13.8198L1.59355 16.4443L4.18864 19.0394L6.81311 16.4149ZM4.21803 13.8198L7.88853 14.3704C8.09802 12.9738 8.64179 11.7568 9.41828 10.8609L6.61349 8.43003L3.8087 5.99921C1.99011 8.09758 0.936897 10.6734 0.547518 13.2692L4.21803 13.8198ZM6.61349 8.43003L9.38755 10.8959L10.9845 9.09927L8.21047 6.63343L5.4364 4.1676L3.83943 5.9642L6.61349 8.43003ZM8.21047 6.63343L10.835 9.2579L10.9348 9.15809L8.31028 6.53362L5.68579 3.90915L5.58598 4.00896L8.21047 6.63343ZM8.31028 6.53362L11.1035 8.97771L12.5009 7.38073L9.70763 4.93665L6.91439 2.49256L5.51704 4.08953L8.31028 6.53362ZM9.70763 4.93665L12.541 7.33411C13.842 5.79653 16.0445 5.05419 18.0203 5.47329L18.7904 1.8425L19.5606 -1.78828C14.9488 -2.76654 9.96493 -1.11341 6.87427 2.53918L9.70763 4.93665ZM18.7904 1.8425L15.1551 2.59095C15.5989 4.74664 14.885 6.79866 13.3518 8.04797L15.6963 10.9253L18.0408 13.8026C21.8973 10.6603 23.3793 5.72552 22.4258 1.09406L18.7904 1.8425ZM14.4986 4.23797V0.526397C11.2247 0.526397 8.89058 3.21481 8.89058 6.13438H12.6022H16.3137C16.3137 7.05773 15.5766 7.94954 14.4986 7.94954V4.23797ZM12.6022 6.13438H8.89058C8.89058 9.18233 11.4506 11.7424 14.4986 11.7424V8.03079V4.31922C15.1164 4.31922 15.5535 4.58533 15.8005 4.8324C16.0476 5.07946 16.3137 5.51656 16.3137 6.13438H12.6022ZM14.4986 8.03079V11.7424C17.7724 11.7424 20.1065 9.05395 20.1065 6.13438H16.395H12.6834C12.6834 5.21103 13.4206 4.31922 14.4986 4.31922V8.03079ZM16.395 6.13438H20.1065C20.1065 3.21481 17.7724 0.526397 14.4986 0.526397V4.23797V7.94954C13.4206 7.94954 12.6834 7.05773 12.6834 6.13438H16.395ZM14.4986 7.13249V3.42092C16.0494 3.42092 17.3118 4.68341 17.3118 6.23419H13.6003H9.88869C9.88869 8.78308 11.9497 10.8441 14.4986 10.8441V7.13249ZM13.6003 6.23419H17.3118C17.3118 7.78498 16.0494 9.04746 14.4986 9.04746V5.33589V1.62432C11.9497 1.62432 9.88869 3.68529 9.88869 6.23419H13.6003ZM14.4986 5.33589V9.04746C12.9478 9.04746 11.6853 7.78498 11.6853 6.23419H15.3969H19.1084C19.1084 3.68529 17.0475 1.62432 14.4986 1.62432V5.33589ZM15.3969 6.23419H11.6853C11.6853 4.6834 12.9478 3.42092 14.4986 3.42092V7.13249V10.8441C17.0475 10.8441 19.1084 8.78309 19.1084 6.23419H15.3969Z" fill="#0682A2" mask="url(#path-1-inside-1_133_7429)"/>
</svg>
