<svg width="17" height="18" viewBox="0 0 17 18" fill="none" xmlns="http://www.w3.org/2000/svg">
<path d="M15.7867 5.34213H14.4267C14.8153 4.87585 15.0581 4.29299 15.0581 3.64213C15.0581 2.16556 13.8633 0.970703 12.3867 0.970703C10.7547 0.970703 9.31698 1.83527 8.50098 3.11756C8.08605 2.46186 7.51246 1.92138 6.83327 1.54613C6.15407 1.17088 5.39122 0.972966 4.61526 0.970703C3.13869 0.970703 1.94383 2.16556 1.94383 3.64213C1.94383 4.29299 2.18669 4.87585 2.57526 5.34213H1.21526C0.544977 5.34213 0.000976562 5.88613 0.000976562 6.55642V8.98499C0.000976562 9.56785 0.418691 10.0341 0.972405 10.1507V16.7564C0.972405 17.4267 1.51641 17.9707 2.18669 17.9707H14.8153C15.4855 17.9707 16.0295 17.4267 16.0295 16.7564V10.1507C16.5833 10.0341 17.001 9.56785 17.001 8.98499V6.55642C17.001 5.88613 16.457 5.34213 15.7867 5.34213ZM15.5438 8.74213H9.22955V6.79927H15.5438V8.74213ZM12.3867 2.42785C12.7087 2.42785 13.0176 2.55578 13.2453 2.7835C13.473 3.01122 13.601 3.32008 13.601 3.64213C13.601 3.96418 13.473 4.27304 13.2453 4.50076C13.0176 4.72848 12.7087 4.85642 12.3867 4.85642H9.31698C9.64726 3.46727 10.9004 2.42785 12.3867 2.42785ZM4.61526 2.42785C6.10155 2.42785 7.35469 3.46727 7.68498 4.85642H4.61526C4.29321 4.85642 3.98436 4.72848 3.75663 4.50076C3.52891 4.27304 3.40098 3.96418 3.40098 3.64213C3.40098 3.32008 3.52891 3.01122 3.75663 2.7835C3.98436 2.55578 4.29321 2.42785 4.61526 2.42785ZM1.45812 6.79927H7.77241V8.74213H1.45812V6.79927ZM2.42955 10.1993H7.77241V16.5136H2.42955V10.1993ZM14.5724 16.5136H9.22955V10.1993H14.5724V16.5136Z" fill="#0682A2"/>
</svg>
