<svg width="23" height="31" viewBox="0 0 23 31" fill="none" xmlns="http://www.w3.org/2000/svg">
<path d="M11.5 20.999C8.94729 20.999 6.49913 19.985 4.6941 18.1799C2.88906 16.3749 1.875 13.9267 1.875 11.374C1.875 8.82131 2.88906 6.37316 4.6941 4.56812C6.49913 2.76308 8.94729 1.74902 11.5 1.74902C14.0527 1.74902 16.5009 2.76308 18.3059 4.56812C20.1109 6.37316 21.125 8.82131 21.125 11.374C21.125 13.9267 20.1109 16.3749 18.3059 18.1799C16.5009 19.985 14.0527 20.999 11.5 20.999ZM11.5 20.999V29.249M11.5 25.8115C11.5 25.8115 12.875 23.749 15.625 23.749C18.375 23.749 19.75 25.8115 19.75 25.8115C19.75 25.8115 18.375 27.874 15.625 27.874C12.875 27.874 11.5 25.8115 11.5 25.8115ZM11.5 25.8115C11.5 25.8115 10.125 27.874 7.375 27.874C4.625 27.874 3.25 25.8115 3.25 25.8115C3.25 25.8115 4.625 23.749 7.375 23.749C10.125 23.749 11.5 25.8115 11.5 25.8115Z" stroke="#0682A2" stroke-width="2.0625" stroke-linecap="round" stroke-linejoin="round"/>
<path d="M9.35225 15.0411V7.7069M11.5 7.7069V5.87402M11.5 16.874V15.0411M9.35225 11.374H13.6478M13.6478 11.374C14.36 11.374 14.9375 11.99 14.9375 12.749V13.6661C14.9375 14.4251 14.36 15.0411 13.6491 15.0411H8.0625M13.6478 11.374C14.3586 11.374 14.9375 10.758 14.9375 9.99902V9.0819C14.9375 8.3229 14.36 7.7069 13.6491 7.7069H8.0625" stroke="#0682A2" stroke-width="2.0625" stroke-linecap="round" stroke-linejoin="round"/>
</svg>
