<svg width="35" height="35" viewBox="0 0 35 35" fill="none" xmlns="http://www.w3.org/2000/svg">
<path d="M9.83325 3.5625V6.25H7.14575V8.04167H9.83325V10.7292H11.6249V8.04167H14.3124V6.25H11.6249V3.5625H9.83325Z" fill="black" fill-opacity="0.42"/>
<path fill-rule="evenodd" clip-rule="evenodd" d="M7.51042 0.875C6.75621 0.875 6.03289 1.17461 5.49958 1.70792C4.96627 2.24122 4.66667 2.96454 4.66667 3.71875V4.66667H0.875V22.6771H21.7292V4.66667H17.9375V3.71875C17.9375 2.96454 17.6379 2.24122 17.1046 1.70792C16.5713 1.17461 15.848 0.875 15.0938 0.875H7.51042ZM15.0938 14.1458C15.848 14.1458 16.5713 13.8462 17.1046 13.3129C17.6379 12.7796 17.9375 12.0563 17.9375 11.3021V10.3542H19.8333V20.7812H15.0938V15.0938H7.51042V20.7812H2.77083V10.3542H4.66667V11.3021C4.66667 12.0563 4.96627 12.7796 5.49958 13.3129C6.03289 13.8462 6.75621 14.1458 7.51042 14.1458H15.0938ZM6.5625 3.71875C6.5625 3.46735 6.66237 3.22624 6.84014 3.04847C7.01791 2.8707 7.25901 2.77083 7.51042 2.77083H15.0938C15.3452 2.77083 15.5863 2.8707 15.764 3.04847C15.9418 3.22624 16.0417 3.46735 16.0417 3.71875V11.3021C16.0417 11.5535 15.9418 11.7946 15.764 11.9724C15.5863 12.1501 15.3452 12.25 15.0938 12.25H7.51042C7.25901 12.25 7.01791 12.1501 6.84014 11.9724C6.66237 11.7946 6.5625 11.5535 6.5625 11.3021V3.71875ZM2.77083 6.5625H4.66667V8.45833H2.77083V6.5625ZM19.8333 8.45833H17.9375V6.5625H19.8333V8.45833ZM13.1979 16.9896V20.7812H9.40625V16.9896H13.1979ZM23.625 21.7292C23.625 20.7236 24.0245 19.7591 24.7356 19.0481C25.4466 18.337 26.4111 17.9375 27.4167 17.9375C28.4223 17.9375 29.3867 18.337 30.0978 19.0481C30.8089 19.7591 31.2083 20.7236 31.2083 21.7292C31.2083 22.7348 30.8089 23.6992 30.0978 24.4103C29.3867 25.1214 28.4223 25.5208 27.4167 25.5208C26.4111 25.5208 25.4466 25.1214 24.7356 24.4103C24.0245 23.6992 23.625 22.7348 23.625 21.7292ZM27.4167 19.8333C26.9139 19.8333 26.4316 20.0331 26.0761 20.3886C25.7206 20.7441 25.5208 21.2264 25.5208 21.7292C25.5208 22.232 25.7206 22.7142 26.0761 23.0697C26.4316 23.4253 26.9139 23.625 27.4167 23.625C27.9195 23.625 28.4017 23.4253 28.7572 23.0697C29.1128 22.7142 29.3125 22.232 29.3125 21.7292C29.3125 21.2264 29.1128 20.7441 28.7572 20.3886C28.4017 20.0331 27.9195 19.8333 27.4167 19.8333ZM27.4167 26.4688C24.8857 26.4688 19.8333 27.8546 19.8333 30.6055V33.1042H11.3021C10.6111 33.1042 10.1627 32.8549 9.87736 32.5335C9.57687 32.1951 9.40625 31.7174 9.40625 31.2083V27.8091L12.5277 30.9306L13.8681 29.5902L8.45833 24.1805L3.04857 29.5902L4.38893 30.9306L7.51042 27.8091V31.2083C7.51042 32.1212 7.81375 33.0653 8.46118 33.7933C9.12377 34.5384 10.0973 35 11.3021 35H35V30.6055C35 27.8546 29.9476 26.4688 27.4167 26.4688ZM22.0079 30.1343C21.7396 30.4045 21.7292 30.5524 21.7292 30.6055V33.1042H33.1042V30.6055C33.1042 30.5524 33.0947 30.4045 32.8255 30.1343C32.5411 29.8471 32.0624 29.5334 31.3979 29.2433C30.0595 28.6565 28.4215 28.3646 27.4167 28.3646C26.4119 28.3646 24.7739 28.6584 23.4354 29.2424C22.7709 29.5324 22.2932 29.8471 22.0079 30.1343Z" fill="url(#paint0_linear_133_7353)"/>
<defs>
<linearGradient id="paint0_linear_133_7353" x1="17.9375" y1="0.875" x2="17.9375" y2="35" gradientUnits="userSpaceOnUse">
<stop stop-color="#FF873C"/>
<stop offset="1" stop-color="#FFB62D"/>
</linearGradient>
</defs>
</svg>
