<svg width="25" height="25" viewBox="0 0 25 25" fill="none" xmlns="http://www.w3.org/2000/svg">
<path d="M23.9869 9.50368L16.2603 1.91768C15.3041 0.98167 14.0087 0.456055 12.6583 0.456055C11.3079 0.456055 10.0126 0.98167 9.05633 1.91768L1.32975 9.50368C1.04495 9.78147 0.81916 10.112 0.665456 10.4761C0.511752 10.8402 0.433195 11.2306 0.434338 11.6247V21.4417C0.434338 22.2373 0.756309 23.0004 1.32942 23.563C1.90253 24.1256 2.67984 24.4417 3.49034 24.4417H21.8263C22.6368 24.4417 23.4142 24.1256 23.9873 23.563C24.5604 23.0004 24.8823 22.2373 24.8823 21.4417V11.6247C24.8835 11.2306 24.8049 10.8402 24.6512 10.4761C24.4975 10.112 24.2717 9.78147 23.9869 9.50368ZM15.7143 22.4417H9.60234V18.5077C9.60234 17.712 9.92431 16.949 10.4974 16.3864C11.0705 15.8238 11.8478 15.5077 12.6583 15.5077C13.4688 15.5077 14.2461 15.8238 14.8193 16.3864C15.3924 16.949 15.7143 17.712 15.7143 18.5077V22.4417ZM22.845 21.4417C22.845 21.7069 22.7377 21.9613 22.5466 22.1488C22.3556 22.3363 22.0965 22.4417 21.8263 22.4417H17.7517V18.5077C17.7517 17.1816 17.2151 15.9098 16.2599 14.9721C15.3047 14.0345 14.0092 13.5077 12.6583 13.5077C11.3075 13.5077 10.012 14.0345 9.05681 14.9721C8.10162 15.9098 7.56501 17.1816 7.56501 18.5077V22.4417H3.49034C3.22017 22.4417 2.96107 22.3363 2.77003 22.1488C2.579 21.9613 2.47167 21.7069 2.47167 21.4417V11.6247C2.47262 11.3597 2.57984 11.1057 2.77014 10.9177L10.4967 3.33468C11.071 2.77361 11.8482 2.45862 12.6583 2.45862C13.4685 2.45862 14.2457 2.77361 14.82 3.33468L22.5465 10.9207C22.7361 11.1079 22.8433 11.3607 22.845 11.6247V21.4417Z" fill="white"/>
</svg>
