<svg width="31" height="31" viewBox="0 0 31 31" fill="none" xmlns="http://www.w3.org/2000/svg">
<path d="M15.6649 0.447266C19.6569 0.447266 23.4853 2.03306 26.308 4.85579C29.1308 7.67852 30.7166 11.507 30.7166 15.4989C30.7166 19.4909 29.1308 23.3193 26.308 26.142C23.4853 28.9648 19.6569 30.5506 15.6649 30.5506C11.673 30.5506 7.84454 28.9648 5.02181 26.142C2.19907 23.3193 0.613281 19.4909 0.613281 15.4989C0.613281 11.507 2.19907 7.67852 5.02181 4.85579C7.84454 2.03306 11.673 0.447266 15.6649 0.447266ZM17.9225 9.68831C19.0406 9.68831 19.9479 8.91214 19.9479 7.76184C19.9479 6.61155 19.0384 5.83537 17.9225 5.83537C16.8045 5.83537 15.9014 6.61155 15.9014 7.76184C15.9014 8.91214 16.8045 9.68831 17.9225 9.68831ZM18.316 21.7868C18.316 21.5568 18.3955 20.959 18.3504 20.6193L16.583 22.6533C16.2175 23.0382 15.7595 23.3048 15.5445 23.2338C15.447 23.1979 15.3654 23.1284 15.3146 23.0377C15.2637 22.9471 15.2469 22.8413 15.2672 22.7393L18.2128 13.4338C18.4536 12.2534 17.7914 11.1762 16.3874 11.0386C14.9059 11.0386 12.7258 12.5415 11.3992 14.4486C11.3992 14.6765 11.3562 15.2441 11.4013 15.5838L13.1665 13.5477C13.532 13.1671 13.9578 12.8984 14.1728 12.9715C14.2787 13.0095 14.3655 13.0875 14.4145 13.1888C14.4636 13.2901 14.471 13.4066 14.4351 13.5133L11.5153 22.7737C11.1777 23.8573 11.8163 24.9195 13.3643 25.1603C15.6434 25.1603 16.9894 23.6939 18.3181 21.7868H18.316Z" fill="white"/>
</svg>
