<svg width="25" height="25" viewBox="0 0 25 25" fill="none" xmlns="http://www.w3.org/2000/svg">
<path d="M11.5 17.7031H13.5V11.7031H11.5V17.7031ZM12.5 9.70312C12.7833 9.70312 13.021 9.60712 13.213 9.41512C13.405 9.22312 13.5007 8.98579 13.5 8.70312C13.4993 8.42046 13.4033 8.18313 13.212 7.99113C13.0207 7.79913 12.7833 7.70312 12.5 7.70312C12.2167 7.70312 11.9793 7.79913 11.788 7.99113C11.5967 8.18313 11.5007 8.42046 11.5 8.70312C11.4993 8.98579 11.5953 9.22346 11.788 9.41613C11.9807 9.60879 12.218 9.70446 12.5 9.70312ZM12.5 22.7031C11.1167 22.7031 9.81667 22.4405 8.6 21.9151C7.38334 21.3898 6.325 20.6775 5.425 19.7781C4.525 18.8788 3.81267 17.8205 3.288 16.6031C2.76333 15.3858 2.50067 14.0858 2.5 12.7031C2.49933 11.3205 2.762 10.0205 3.288 8.80313C3.814 7.58579 4.52633 6.52746 5.425 5.62813C6.32367 4.72879 7.382 4.01646 8.6 3.49113C9.818 2.96579 11.118 2.70313 12.5 2.70312C13.882 2.70312 15.182 2.96579 16.4 3.49113C17.618 4.01646 18.6763 4.72879 19.575 5.62813C20.4737 6.52746 21.1863 7.58579 21.713 8.80313C22.2397 10.0205 22.502 11.3205 22.5 12.7031C22.498 14.0858 22.2353 15.3858 21.712 16.6031C21.1887 17.8205 20.4763 18.8788 19.575 19.7781C18.6737 20.6775 17.6153 21.3901 16.4 21.9161C15.1847 22.4421 13.8847 22.7045 12.5 22.7031ZM12.5 20.7031C14.7333 20.7031 16.625 19.9281 18.175 18.3781C19.725 16.8281 20.5 14.9365 20.5 12.7031C20.5 10.4698 19.725 8.57812 18.175 7.02812C16.625 5.47812 14.7333 4.70312 12.5 4.70312C10.2667 4.70312 8.375 5.47812 6.825 7.02812C5.275 8.57812 4.5 10.4698 4.5 12.7031C4.5 14.9365 5.275 16.8281 6.825 18.3781C8.375 19.9281 10.2667 20.7031 12.5 20.7031Z" fill="black"/>
</svg>
