<svg width="22" height="23" viewBox="0 0 22 23" fill="none" xmlns="http://www.w3.org/2000/svg">
<path d="M11 2.4707C8.48044 2.4707 6.06408 3.47159 4.28249 5.25319C2.50089 7.03478 1.5 9.45115 1.5 11.9707C1.5 14.4903 2.50089 16.9066 4.28249 18.6882C6.06408 20.4698 8.48044 21.4707 11 21.4707C11.1989 21.4707 11.3897 21.5497 11.5303 21.6904C11.671 21.831 11.75 22.0218 11.75 22.2207C11.75 22.4196 11.671 22.6104 11.5303 22.751C11.3897 22.8917 11.1989 22.9707 11 22.9707C4.925 22.9707 0 18.0457 0 11.9707C0 5.8957 4.925 0.970703 11 0.970703C17.075 0.970703 22 5.8957 22 11.9707C22 12.1696 21.921 12.3604 21.7803 12.501C21.6397 12.6417 21.4489 12.7207 21.25 12.7207C21.0511 12.7207 20.8603 12.6417 20.7197 12.501C20.579 12.3604 20.5 12.1696 20.5 11.9707C20.5 9.45115 19.4991 7.03478 17.7175 5.25319C15.9359 3.47159 13.5196 2.4707 11 2.4707Z" fill="#0682A2"/>
<path d="M12.759 17.4502L16.487 20.7642C16.5314 20.8038 16.5862 20.8297 16.645 20.8388C16.7037 20.8478 16.7638 20.8397 16.818 20.8154C16.8723 20.7911 16.9183 20.7516 16.9506 20.7017C16.9829 20.6518 17 20.5937 17 20.5342V17.9702H21.25C21.4489 17.9702 21.6397 17.8912 21.7804 17.7506C21.921 17.6099 22 17.4191 22 17.2202C22 17.0213 21.921 16.8306 21.7804 16.6899C21.6397 16.5493 21.4489 16.4702 21.25 16.4702H17V13.9062C17 13.8468 16.9829 13.7886 16.9506 13.7387C16.9183 13.6889 16.8723 13.6494 16.818 13.6251C16.7638 13.6007 16.7037 13.5926 16.645 13.6017C16.5862 13.6108 16.5314 13.6367 16.487 13.6762L12.759 16.9902C12.7264 17.019 12.7003 17.0544 12.6825 17.0941C12.6646 17.1337 12.6554 17.1767 12.6554 17.2202C12.6554 17.2637 12.6646 17.3067 12.6825 17.3464C12.7003 17.386 12.7264 17.4214 12.759 17.4502ZM16.28 9.25024C16.3496 9.18064 16.4048 9.09801 16.4425 9.00707C16.4802 8.91613 16.4996 8.81867 16.4996 8.72024C16.4996 8.62181 16.4802 8.52434 16.4425 8.4334C16.4048 8.34247 16.3496 8.25984 16.28 8.19024C16.2104 8.12064 16.1278 8.06543 16.0369 8.02776C15.9459 7.99009 15.8485 7.9707 15.75 7.9707C15.6516 7.9707 15.5541 7.99009 15.4632 8.02776C15.3722 8.06543 15.2896 8.12064 15.22 8.19024L9.25002 14.1592L6.78002 11.6902C6.71042 11.6206 6.62779 11.5654 6.53686 11.5278C6.44592 11.4901 6.34845 11.4707 6.25002 11.4707C6.15159 11.4707 6.05413 11.4901 5.96319 11.5278C5.87225 11.5654 5.78962 11.6206 5.72002 11.6902C5.65042 11.7598 5.59521 11.8425 5.55754 11.9334C5.51988 12.0243 5.50049 12.1218 5.50049 12.2202C5.50049 12.3187 5.51988 12.4161 5.55754 12.5071C5.59521 12.598 5.65042 12.6806 5.72002 12.7502L8.72002 15.7502C8.86065 15.8907 9.05127 15.9696 9.25002 15.9696C9.44877 15.9696 9.6394 15.8907 9.78002 15.7502L16.28 9.25024Z" fill="#0682A2"/>
</svg>
