<svg width="24" height="26" viewBox="0 0 24 26" fill="none" xmlns="http://www.w3.org/2000/svg">
<path d="M23.0473 16.4004L20.6204 13.9734V10.7585C20.6176 8.53669 19.7911 6.39487 18.3007 4.74715C16.8103 3.09944 14.7619 2.06287 12.5515 1.8379V0H10.7585V1.8379C8.54811 2.06287 6.49969 3.09944 5.00929 4.74715C3.51889 6.39487 2.69239 8.53669 2.68962 10.7585V13.9734L0.262686 16.4004C0.0945405 16.5685 5.07776e-05 16.7965 0 17.0342V19.7238C0 19.9616 0.0944564 20.1897 0.26259 20.3578C0.430723 20.5259 0.658762 20.6204 0.896538 20.6204H7.17231V21.317C7.15241 22.4545 7.55316 23.5593 8.2977 24.4195C9.04224 25.2796 10.0781 25.8347 11.2067 25.9781C11.83 26.0399 12.4593 25.9706 13.0541 25.7746C13.649 25.5786 14.1962 25.2602 14.6607 24.8401C15.1251 24.4199 15.4965 23.9071 15.7508 23.3348C16.0052 22.7625 16.137 22.1432 16.1377 21.5169V20.6204H22.4135C22.6512 20.6204 22.8793 20.5259 23.0474 20.3578C23.2155 20.1897 23.31 19.9616 23.31 19.7238V17.0342C23.3099 16.7965 23.2155 16.5685 23.0473 16.4004ZM14.3446 21.5169C14.3446 22.2302 14.0612 22.9144 13.5568 23.4188C13.0524 23.9232 12.3683 24.2065 11.655 24.2065C10.9417 24.2065 10.2576 23.9232 9.75315 23.4188C9.24875 22.9144 8.96538 22.2302 8.96538 21.5169V20.6204H14.3446V21.5169ZM21.5169 18.8273H1.79308V17.4054L4.22001 14.9785C4.38815 14.8104 4.48264 14.5824 4.48269 14.3446V10.7585C4.48269 8.85625 5.23834 7.03194 6.58341 5.68687C7.92848 4.3418 9.75278 3.58615 11.655 3.58615C13.5572 3.58615 15.3815 4.3418 16.7266 5.68687C18.0717 7.03194 18.8273 8.85625 18.8273 10.7585V14.3446C18.8274 14.5824 18.9218 14.8104 19.09 14.9785L21.5169 17.4054V18.8273Z" fill="white"/>
</svg>
