<svg width="21" height="22" viewBox="0 0 21 22" fill="none" xmlns="http://www.w3.org/2000/svg">
<path fill-rule="evenodd" clip-rule="evenodd" d="M10.6001 0.572266C11.9515 0.572259 13.2897 0.838438 14.5383 1.35561C15.7868 1.87277 16.9213 2.6308 17.8769 3.5864C18.8325 4.54201 19.5905 5.67648 20.1077 6.92504C20.6249 8.1736 20.8911 9.5118 20.8911 10.8632C20.8911 16.5468 16.2836 21.1543 10.6001 21.1543C4.91653 21.1543 0.309082 16.5468 0.309082 10.8632C0.309082 5.17972 4.91653 0.572266 10.6001 0.572266ZM11.6292 11.8924H9.57097C7.02323 11.8924 4.83593 13.4354 3.89252 15.638C5.38522 17.7312 7.83326 19.096 10.6001 19.096C13.3669 19.096 15.8149 17.7312 17.3076 15.6379C16.3642 13.4354 14.1769 11.8924 11.6292 11.8924ZM10.6001 3.65956C8.895 3.65956 7.51276 5.0418 7.51276 6.74686C7.51276 8.45192 8.895 9.83416 10.6001 9.83416C12.3051 9.83416 13.6874 8.45192 13.6874 6.74686C13.6874 5.0418 12.3052 3.65956 10.6001 3.65956Z" fill="black"/>
</svg>
