<svg width="30" height="27" viewBox="0 0 30 27" fill="none" xmlns="http://www.w3.org/2000/svg">
<path d="M24.7079 17.4548C25.2096 16.2364 25.482 14.9321 25.482 13.4987C25.482 12.4666 25.3243 11.4776 25.052 10.5602C24.1202 10.7752 23.1455 10.8899 22.1278 10.8899C20.0437 10.8921 17.9895 10.3933 16.1385 9.43533C14.2875 8.4774 12.6939 7.08849 11.4921 5.38569C10.2077 8.4972 7.78209 10.9998 4.71218 12.3806C4.65485 12.739 4.65485 13.126 4.65485 13.4987C4.65485 14.8671 4.92439 16.2222 5.44808 17.4865C5.97177 18.7508 6.73935 19.8996 7.70701 20.8672C9.66127 22.8215 12.3118 23.9194 15.0756 23.9194C16.5806 23.9194 18.0284 23.5897 19.3327 23.002C20.1498 24.5644 20.5224 25.3384 20.4938 25.3384C18.143 26.1268 16.3226 26.5138 15.0756 26.5138C11.6068 26.5138 8.29565 25.1521 5.85889 22.701C4.37541 21.2245 3.27345 19.4092 2.6481 17.4118H0.741699V10.8899H2.30409C2.77746 8.58575 3.86576 6.45272 5.45352 4.71715C7.04127 2.98158 9.06926 1.7082 11.3223 1.03215C13.5753 0.356093 15.9693 0.302573 18.2503 0.877268C20.5313 1.45196 22.6142 2.63344 24.2779 4.29632C26.0837 6.09605 27.3157 8.39048 27.8184 10.8899H29.4095V17.4118H29.3234L24.2206 22.099L16.6236 21.239V18.8452H23.5469L24.7079 17.4548ZM11.1624 13.169C11.5924 13.169 12.0081 13.341 12.3091 13.6563C12.6116 13.9613 12.7814 14.3735 12.7814 14.803C12.7814 15.2326 12.6116 15.6448 12.3091 15.9498C12.0081 16.2508 11.5924 16.4228 11.1624 16.4228C10.2594 16.4228 9.52837 15.7061 9.52837 14.803C9.52837 13.9 10.2594 13.169 11.1624 13.169ZM18.9744 13.169C19.8774 13.169 20.5941 13.9 20.5941 14.803C20.5941 15.7061 19.8774 16.4228 18.9744 16.4228C18.0714 16.4228 17.3403 15.7061 17.3403 14.803C17.3403 14.3697 17.5125 13.954 17.8189 13.6476C18.1254 13.3411 18.541 13.169 18.9744 13.169Z" fill="white"/>
</svg>
