<svg width="49" height="49" viewBox="0 0 49 49" fill="none" xmlns="http://www.w3.org/2000/svg">
<g clip-path="url(#clip0_133_7362)">
<g filter="url(#filter0_d_133_7362)">
<path d="M12.219 14.4164C12.2064 12.8726 12.7842 11.3824 13.8341 10.2506C14.8841 9.11887 16.3268 8.4311 17.8672 8.32805L18.2222 8.31509L18.3957 8.31368L18.4331 8.20846C18.6339 7.68896 18.9741 7.23494 19.4163 6.89638C19.8586 6.55783 20.3856 6.34788 20.9395 6.28965L21.2319 6.27316L27.2842 6.22413C27.891 6.21911 28.4852 6.3966 28.9898 6.73358C29.4945 7.07056 29.8861 7.55146 30.114 8.11384L30.1511 8.21845L30.3267 8.21703C31.8704 8.20443 33.3606 8.78223 34.4924 9.83219C35.6241 10.8821 36.3119 12.3249 36.415 13.8653L36.4279 14.2202L36.6077 36.4118C36.6203 37.9555 36.0425 39.4458 34.9925 40.5775C33.9426 41.7093 32.4998 42.3971 30.9595 42.5001L30.6045 42.5131L18.5 42.6111C16.9562 42.6237 15.466 42.0459 14.3343 40.996C13.2025 39.946 12.5147 38.5033 12.4117 36.9629L12.3987 36.6079L12.219 14.4164ZM18.4346 34.5415C18.439 35.0765 18.6557 35.5879 19.0371 35.9632C19.4185 36.3385 19.9333 36.5469 20.4684 36.5425L28.538 36.4772L28.774 36.4611C29.2841 36.3963 29.7502 36.1391 30.077 35.7421C30.4038 35.3451 30.5667 34.8383 30.5324 34.3252C30.4982 33.8122 30.2692 33.3315 29.8925 32.9816C29.5157 32.6316 29.0196 32.4387 28.5054 32.4423L20.4357 32.5077L20.1998 32.5237C19.7095 32.5855 19.259 32.8251 18.9336 33.197C18.6082 33.5689 18.4307 34.0473 18.4346 34.5415ZM18.3856 28.4892C18.3899 29.0243 18.6066 29.5357 18.988 29.911C19.3694 30.2862 19.8843 30.4946 20.4194 30.4903L28.489 30.4249L28.7249 30.4089C29.235 30.344 29.7011 30.0868 30.028 29.6898C30.3548 29.2929 30.5177 28.7861 30.4834 28.273C30.4491 27.7599 30.2202 27.2793 29.8435 26.9293C29.4667 26.5794 28.9705 26.3865 28.4563 26.3901L20.3867 26.4555L20.1507 26.4715C19.6605 26.5333 19.2099 26.7729 18.8846 27.1448C18.5592 27.5167 18.3817 27.9951 18.3856 28.4892Z" fill="url(#paint0_linear_133_7362)"/>
</g>
</g>
<defs>
<filter id="filter0_d_133_7362" x="8.21875" y="6.22363" width="32.3892" height="44.3877" filterUnits="userSpaceOnUse" color-interpolation-filters="sRGB">
<feFlood flood-opacity="0" result="BackgroundImageFix"/>
<feColorMatrix in="SourceAlpha" type="matrix" values="0 0 0 0 0 0 0 0 0 0 0 0 0 0 0 0 0 0 127 0" result="hardAlpha"/>
<feOffset dy="4"/>
<feGaussianBlur stdDeviation="2"/>
<feComposite in2="hardAlpha" operator="out"/>
<feColorMatrix type="matrix" values="0 0 0 0 0 0 0 0 0 0 0 0 0 0 0 0 0 0 0.25 0"/>
<feBlend mode="normal" in2="BackgroundImageFix" result="effect1_dropShadow_133_7362"/>
<feBlend mode="normal" in="SourceGraphic" in2="effect1_dropShadow_133_7362" result="shape"/>
</filter>
<linearGradient id="paint0_linear_133_7362" x1="24.2581" y1="6.24864" x2="24.5522" y2="42.5621" gradientUnits="userSpaceOnUse">
<stop stop-color="#FF823E"/>
<stop offset="1" stop-color="#FFBB2C"/>
</linearGradient>
<clipPath id="clip0_133_7362">
<rect width="48.4195" height="48.4195" fill="white" transform="translate(0.392334 48.8105) rotate(-90.4641)"/>
</clipPath>
</defs>
</svg>
