<svg width="26" height="27" viewBox="0 0 26 27" fill="none" xmlns="http://www.w3.org/2000/svg">
<path d="M18.5625 20.25H18.3911C18.189 19.2656 17.833 18.3604 17.3232 17.5342C16.8135 16.708 16.1938 15.9961 15.4644 15.3984C14.7349 14.8008 13.9131 14.335 12.999 14.001C12.085 13.667 11.127 13.5 10.125 13.5C9.35156 13.5 8.60449 13.6011 7.88379 13.8032C7.16309 14.0054 6.49072 14.2866 5.8667 14.647C5.24268 15.0073 4.67578 15.4468 4.16602 15.9653C3.65625 16.4839 3.2168 17.0552 2.84766 17.6792C2.47852 18.3032 2.19287 18.9756 1.99072 19.6963C1.78857 20.417 1.6875 21.1641 1.6875 21.9375H0C0 20.8828 0.153809 19.8677 0.461426 18.8921C0.769043 17.9165 1.21289 17.0156 1.79297 16.1895C2.37305 15.3633 3.05859 14.6294 3.84961 13.9878C4.64062 13.3462 5.53711 12.8408 6.53906 12.4717C5.5459 11.8213 4.77246 11.0039 4.21875 10.0195C3.66504 9.03516 3.38379 7.94531 3.375 6.75C3.375 5.81836 3.55078 4.94385 3.90234 4.12646C4.25391 3.30908 4.73291 2.59277 5.33936 1.97754C5.9458 1.3623 6.66211 0.878906 7.48828 0.527344C8.31445 0.175781 9.19336 0 10.125 0C11.0566 0 11.9312 0.175781 12.7485 0.527344C13.5659 0.878906 14.2822 1.35791 14.8975 1.96436C15.5127 2.5708 15.9961 3.28711 16.3477 4.11328C16.6992 4.93945 16.875 5.81836 16.875 6.75C16.875 7.33008 16.8047 7.89697 16.6641 8.45068C16.5234 9.00439 16.3125 9.52734 16.0312 10.0195C15.75 10.5117 15.4204 10.9644 15.0425 11.3774C14.6646 11.7905 14.2207 12.1553 13.7109 12.4717C14.6953 12.8496 15.6006 13.3682 16.4268 14.0273C17.2529 14.6865 17.9648 15.46 18.5625 16.3477V20.25ZM5.0625 6.75C5.0625 7.45312 5.19434 8.10791 5.45801 8.71436C5.72168 9.3208 6.08203 9.85693 6.53906 10.3228C6.99609 10.7886 7.53223 11.1533 8.14746 11.417C8.7627 11.6807 9.42188 11.8125 10.125 11.8125C10.8193 11.8125 11.4741 11.6807 12.0894 11.417C12.7046 11.1533 13.2407 10.793 13.6978 10.3359C14.1548 9.87891 14.5195 9.34277 14.792 8.72754C15.0645 8.1123 15.1963 7.45312 15.1875 6.75C15.1875 6.05566 15.0557 5.40088 14.792 4.78564C14.5283 4.17041 14.168 3.63428 13.7109 3.17725C13.2539 2.72021 12.7134 2.35547 12.0894 2.08301C11.4653 1.81055 10.8105 1.67871 10.125 1.6875C9.42188 1.6875 8.76709 1.81934 8.16064 2.08301C7.5542 2.34668 7.01807 2.70703 6.55225 3.16406C6.08643 3.62109 5.72168 4.16162 5.45801 4.78564C5.19434 5.40967 5.0625 6.06445 5.0625 6.75ZM21.9375 21.9375H25.3125V23.625H21.9375V27H20.25V23.625H16.875V21.9375H20.25V18.5625H21.9375V21.9375Z" fill="#0682A2"/>
</svg>
