<svg width="19" height="11" viewBox="0 0 19 11" fill="none" xmlns="http://www.w3.org/2000/svg">
<path d="M14.5088 9.21973V10.7197H5.50879V9.21973C5.50879 9.21973 5.50879 6.21973 10.0088 6.21973C14.5088 6.21973 14.5088 9.21973 14.5088 9.21973ZM12.2588 2.46973C12.2588 2.02472 12.1268 1.5897 11.8796 1.21969C11.6324 0.849684 11.281 0.561296 10.8698 0.390999C10.4587 0.220701 10.0063 0.176144 9.56984 0.262961C9.13338 0.349777 8.73247 0.564069 8.4178 0.878737C8.10313 1.19341 7.88884 1.59432 7.80202 2.03077C7.71521 2.46723 7.75976 2.91963 7.93006 3.33076C8.10036 3.7419 8.38875 4.0933 8.75876 4.34053C9.12877 4.58777 9.56378 4.71973 10.0088 4.71973C10.6055 4.71973 11.1778 4.48267 11.5998 4.06072C12.0217 3.63876 12.2588 3.06646 12.2588 2.46973ZM14.6588 6.26473C15.0688 6.64295 15.3993 7.09906 15.6311 7.60641C15.8629 8.11377 15.9913 8.66221 16.0088 9.21973V10.7197H18.2588V9.21973C18.2588 9.21973 18.2588 6.63223 14.6588 6.26473ZM13.7588 0.219727C13.5322 0.219741 13.307 0.255168 13.0913 0.324727C13.5301 0.953954 13.7653 1.70261 13.7653 2.46973C13.7653 3.23684 13.5301 3.9855 13.0913 4.61473C13.307 4.68429 13.5322 4.71971 13.7588 4.71973C14.3555 4.71973 14.9278 4.48267 15.3498 4.06072C15.7717 3.63876 16.0088 3.06646 16.0088 2.46973C16.0088 1.87299 15.7717 1.30069 15.3498 0.878737C14.9278 0.45678 14.3555 0.219727 13.7588 0.219727ZM6.25879 3.96973H4.00879V1.71973H2.50879V3.96973H0.258789V5.46973H2.50879V7.71973H4.00879V5.46973H6.25879V3.96973Z" fill="white"/>
</svg>
