<svg width="29" height="29" viewBox="0 0 29 29" fill="none" xmlns="http://www.w3.org/2000/svg">
<path d="M15.8775 2.9V0C22.6345 0.725 27.956 6.0755 28.71 12.8325C29.58 20.793 23.8525 27.956 15.8775 28.826V25.926C21.1555 25.2735 25.3025 21.112 25.9695 15.834C26.1573 14.3219 26.0452 12.7876 25.6395 11.3189C25.2338 9.85018 24.5425 8.47586 23.6052 7.27457C22.6678 6.07327 21.5029 5.06856 20.1769 4.31793C18.8509 3.5673 17.3899 3.08547 15.8775 2.9ZM5.249 3.19C7.44697 1.37569 10.1397 0.264233 12.9775 0V2.987C10.904 3.277 8.9465 4.118 7.3225 5.423L5.249 3.19ZM0 13.05C0.268385 10.2106 1.38496 7.51771 3.2045 5.3215L5.278 7.395C3.99222 9.03245 3.17083 10.9858 2.9 13.05H0ZM3.219 23.6785C1.41763 21.4714 0.303446 18.7842 0.0145 15.95H2.9145C3.1755 18.009 4.002 19.9665 5.278 21.605L3.219 23.6785ZM5.249 25.723L7.2645 23.7365H7.3225C8.961 25.0125 10.9185 25.839 12.9775 26.1V29C10.1355 28.6955 7.4385 27.55 5.249 25.723ZM14.4275 21.75L16.6895 16.791L21.6775 14.5L16.6895 12.238L14.4275 7.25L12.151 12.238L7.1775 14.5L12.151 16.791L14.4275 21.75Z" fill="#0682A2"/>
</svg>
