<svg width="33" height="43" viewBox="0 0 33 43" fill="none" xmlns="http://www.w3.org/2000/svg">
<g filter="url(#filter0_d_133_7363)">
<path d="M4.21895 8.41636C4.20636 6.87261 4.78415 5.3824 5.83411 4.25064C6.88407 3.11887 8.32683 2.4311 9.86718 2.32805L10.2222 2.31509L10.3957 2.31368L10.4331 2.20846C10.6339 1.68896 10.9741 1.23494 11.4163 0.896381C11.8586 0.557827 12.3856 0.347877 12.9395 0.289647L13.2319 0.273155L19.2842 0.224126C19.891 0.219108 20.4852 0.396604 20.9898 0.733584C21.4945 1.07056 21.8861 1.55146 22.114 2.11384L22.1511 2.21845L22.3267 2.21703C23.8704 2.20443 25.3606 2.78223 26.4924 3.83219C27.6241 4.88215 28.3119 6.3249 28.415 7.86526L28.4279 8.22024L28.6077 30.4118C28.6203 31.9555 28.0425 33.4458 26.9925 34.5775C25.9426 35.7093 24.4998 36.3971 22.9595 36.5001L22.6045 36.5131L10.5 36.6111C8.95625 36.6237 7.46604 36.0459 6.33427 34.996C5.20251 33.946 4.51474 32.5033 4.41169 30.9629L4.39872 30.6079L4.21895 8.41636ZM10.4346 28.5415C10.439 29.0765 10.6557 29.5879 11.0371 29.9632C11.4185 30.3385 11.9333 30.5469 12.4684 30.5425L20.538 30.4772L20.774 30.4611C21.2841 30.3963 21.7502 30.1391 22.077 29.7421C22.4038 29.3451 22.5667 28.8383 22.5324 28.3252C22.4982 27.8122 22.2692 27.3315 21.8925 26.9816C21.5157 26.6316 21.0196 26.4387 20.5054 26.4423L12.4357 26.5077L12.1998 26.5237C11.7095 26.5855 11.259 26.8251 10.9336 27.197C10.6082 27.5689 10.4307 28.0473 10.4346 28.5415ZM10.3856 22.4892C10.3899 23.0243 10.6066 23.5357 10.988 23.911C11.3694 24.2862 11.8843 24.4946 12.4194 24.4903L20.489 24.4249L20.7249 24.4089C21.235 24.344 21.7011 24.0868 22.028 23.6898C22.3548 23.2929 22.5177 22.7861 22.4834 22.273C22.4491 21.7599 22.2202 21.2793 21.8435 20.9293C21.4667 20.5794 20.9705 20.3865 20.4563 20.3901L12.3867 20.4555L12.1507 20.4715C11.6605 20.5333 11.2099 20.7729 10.8846 21.1448C10.5592 21.5167 10.3817 21.9951 10.3856 22.4892Z" fill="url(#paint0_linear_133_7363)"/>
</g>
<defs>
<filter id="filter0_d_133_7363" x="0.21875" y="0.223633" width="32.3892" height="44.3877" filterUnits="userSpaceOnUse" color-interpolation-filters="sRGB">
<feFlood flood-opacity="0" result="BackgroundImageFix"/>
<feColorMatrix in="SourceAlpha" type="matrix" values="0 0 0 0 0 0 0 0 0 0 0 0 0 0 0 0 0 0 127 0" result="hardAlpha"/>
<feOffset dy="4"/>
<feGaussianBlur stdDeviation="2"/>
<feComposite in2="hardAlpha" operator="out"/>
<feColorMatrix type="matrix" values="0 0 0 0 0 0 0 0 0 0 0 0 0 0 0 0 0 0 0.25 0"/>
<feBlend mode="normal" in2="BackgroundImageFix" result="effect1_dropShadow_133_7363"/>
<feBlend mode="normal" in="SourceGraphic" in2="effect1_dropShadow_133_7363" result="shape"/>
</filter>
<linearGradient id="paint0_linear_133_7363" x1="16.2581" y1="0.248641" x2="16.5522" y2="36.5621" gradientUnits="userSpaceOnUse">
<stop stop-color="#FF823E"/>
<stop offset="1" stop-color="#FFBB2C"/>
</linearGradient>
</defs>
</svg>
