<svg width="39" height="36" viewBox="0 0 39 36" fill="none" xmlns="http://www.w3.org/2000/svg">
<path d="M9 3.34813C8.18912 3.91185 7.52681 4.66354 7.06968 5.53894C6.61255 6.41435 6.3742 7.38743 6.375 8.375C6.37478 9.43179 6.64799 10.4707 7.16807 11.3906C7.68815 12.3106 8.43741 13.0803 9.343 13.625M30 3.34813C30.8109 3.91185 31.4732 4.66354 31.9303 5.53894C32.3874 6.41435 32.6258 7.38743 32.625 8.375C32.6259 9.36272 32.3877 10.336 31.9305 11.2115C31.4734 12.0871 30.811 12.8389 30 13.4028M37 33.75V32.7C37 28.78 37 26.82 36.237 25.322C35.5659 24.0049 34.4951 22.9341 33.178 22.263M2 33.75V32.7C2 28.78 2 26.82 2.763 25.322C3.4341 24.0049 4.50492 22.9341 5.822 22.263M19.5 14.5C20.3043 14.5 21.1008 14.3416 21.8439 14.0338C22.5871 13.726 23.2623 13.2748 23.831 12.706C24.3998 12.1373 24.851 11.4621 25.1588 10.7189C25.4666 9.97582 25.625 9.17935 25.625 8.375C25.625 7.57065 25.4666 6.77418 25.1588 6.03106C24.851 5.28794 24.3998 4.61273 23.831 4.04397C23.2623 3.47521 22.5871 3.02405 21.8439 2.71624C21.1008 2.40843 20.3043 2.25 19.5 2.25C17.8755 2.25 16.3176 2.89531 15.169 4.04397C14.0203 5.19263 13.375 6.75055 13.375 8.375C13.375 9.99945 14.0203 11.5574 15.169 12.706C16.3176 13.8547 17.8755 14.5 19.5 14.5ZM9 32V33.75H30V32C30 28.7389 30 27.1079 29.4671 25.8207C28.7565 24.1057 27.3936 22.7431 25.6784 22.0329C24.393 21.5 22.762 21.5 19.5 21.5C16.238 21.5 14.6079 21.5 13.3216 22.0329C12.4722 22.3847 11.7005 22.9003 11.0504 23.5504C10.4003 24.2005 9.88466 24.9722 9.53288 25.8216C9 27.1079 9 28.7389 9 32Z" stroke="url(#paint0_linear_133_7345)" stroke-width="3.5" stroke-linecap="round" stroke-linejoin="round"/>
<defs>
<linearGradient id="paint0_linear_133_7345" x1="22" y1="26.75" x2="24.8122" y2="25.5446" gradientUnits="userSpaceOnUse">
<stop stop-color="#FFBB2C"/>
<stop offset="1" stop-color="#FF833E"/>
</linearGradient>
</defs>
</svg>
