<svg width="15" height="15" viewBox="0 0 15 15" fill="none" xmlns="http://www.w3.org/2000/svg">
<path d="M2.64319 2.80453C1.56409 4.00974 0.959934 5.56615 0.943284 7.18377C0.902272 10.8801 3.92013 13.9195 7.61641 13.9264C11.3075 13.9334 14.2895 10.9433 14.2895 7.25328C14.2895 3.61991 11.3857 0.663223 7.77281 0.580156C7.75248 0.579503 7.73222 0.582951 7.71325 0.590295C7.69427 0.597639 7.67697 0.608729 7.66238 0.622903C7.64778 0.637077 7.63619 0.654045 7.62829 0.672795C7.6204 0.691546 7.61636 0.711694 7.61641 0.73204V3.63867" stroke="#0682A2" stroke-width="1.11219" stroke-linecap="round" stroke-linejoin="round"/>
<path d="M6.83125 8.03969L4.08554 4.11227C4.04755 4.05786 4.02993 3.99181 4.03576 3.92571C4.04159 3.8596 4.0705 3.79766 4.11743 3.75073C4.16435 3.70381 4.2263 3.67489 4.2924 3.66906C4.35851 3.66323 4.42456 3.68085 4.47897 3.71884L8.40639 6.46455C8.64728 6.63805 8.81019 6.89941 8.85988 7.19209C8.90956 7.48478 8.84203 7.78525 8.67188 8.02853C8.50173 8.2718 8.24266 8.43832 7.95069 8.49205C7.65872 8.54578 7.35734 8.48241 7.11173 8.31565C7.00313 8.2404 6.90826 8.14706 6.83125 8.03969Z" fill="#0682A2"/>
</svg>
