<svg width="55" height="56" viewBox="0 0 55 56" fill="none" xmlns="http://www.w3.org/2000/svg">
<rect width="54.5008" height="54.5008" rx="16.3502" fill="url(#paint0_linear_2016_1016)"/>
<g opacity="0.25" filter="url(#filter0_f_2016_1016)">
<rect x="8.21094" y="27.25" width="37.1272" height="23.2045" rx="11.6022" fill="url(#paint1_linear_2016_1016)"/>
</g>
<rect x="7.08521" y="7.08496" width="40.2211" height="40.2211" rx="16.3502" fill="url(#paint2_linear_2016_1016)"/>
<g clip-path="url(#clip0_2016_1016)" filter="url(#filter1_i_2016_1016)">
<path d="M14.7153 39.2402L16.4734 32.7033C15.0556 30.1568 14.6051 27.1853 15.2047 24.334C15.8043 21.4827 17.4137 18.9429 19.7376 17.1806C22.0615 15.4184 24.944 14.5519 27.8561 14.7402C30.7683 14.9284 33.5148 16.1588 35.5917 18.2056C37.6685 20.2523 38.9364 22.9781 39.1626 25.8828C39.3889 28.7874 38.5583 31.6762 36.8233 34.0188C35.0884 36.3615 32.5654 38.0009 29.7174 38.6364C26.8694 39.2718 23.8873 38.8606 21.3185 37.4781L14.7153 39.2402ZM21.6369 35.032L22.0453 35.2738C23.9059 36.3748 26.0791 36.8305 28.2263 36.5697C30.3734 36.3089 32.3738 35.3464 33.9157 33.8321C35.4577 32.3178 36.4546 30.3368 36.751 28.1978C37.0475 26.0588 36.6269 23.882 35.5548 22.0066C34.4827 20.1311 32.8192 18.6625 30.8237 17.8294C28.8282 16.9963 26.6127 16.8457 24.5225 17.4009C22.4323 17.9562 20.5848 19.1861 19.2678 20.899C17.9509 22.612 17.2385 24.7118 17.2417 26.8711C17.24 28.6616 17.7359 30.4174 18.6745 31.9431L18.9306 32.3647L17.9477 36.0132L21.6369 35.032Z" fill="white"/>
<path fill-rule="evenodd" clip-rule="evenodd" d="M31.5483 28.5501C31.3089 28.3573 31.0286 28.2216 30.7287 28.1534C30.4289 28.0851 30.1174 28.0861 29.8179 28.1562C29.368 28.3428 29.0773 29.0476 28.7866 29.4C28.7253 29.4845 28.6352 29.5438 28.5333 29.5667C28.4313 29.5896 28.3245 29.5745 28.2329 29.5244C26.5858 28.8804 25.2052 27.6993 24.3153 26.173C24.2394 26.0778 24.2035 25.9568 24.2151 25.8357C24.2267 25.7145 24.2849 25.6026 24.3776 25.5235C24.7018 25.203 24.9399 24.8061 25.0697 24.3695C25.0986 23.8879 24.988 23.4081 24.7513 22.9875C24.5683 22.3977 24.2201 21.8726 23.7477 21.4742C23.5041 21.3648 23.2339 21.3281 22.9699 21.3685C22.7058 21.409 22.4591 21.5249 22.2596 21.7022C21.9131 22.0006 21.6381 22.3728 21.4549 22.7913C21.2716 23.2099 21.1847 23.6642 21.2006 24.1207C21.2016 24.3771 21.2342 24.6324 21.2975 24.8808C21.4582 25.4778 21.7054 26.0481 22.0312 26.5738C22.2662 26.9765 22.5227 27.3663 22.7995 27.7416C23.6989 28.9743 24.8296 30.021 26.1287 30.8235C26.7806 31.2313 27.4774 31.5629 28.2052 31.8116C28.9612 32.1538 29.796 32.2851 30.6208 32.1917C31.0908 32.1207 31.536 31.9354 31.9174 31.6523C32.2988 31.3691 32.6047 30.9967 32.808 30.5678C32.9275 30.3087 32.9638 30.0191 32.9119 29.7386C32.7873 29.1651 32.019 28.8265 31.5483 28.5501Z" fill="white"/>
</g>
<defs>
<filter id="filter0_f_2016_1016" x="2.75094" y="21.79" width="48.0472" height="34.1241" filterUnits="userSpaceOnUse" color-interpolation-filters="sRGB">
<feFlood flood-opacity="0" result="BackgroundImageFix"/>
<feBlend mode="normal" in="SourceGraphic" in2="BackgroundImageFix" result="shape"/>
<feGaussianBlur stdDeviation="2.73" result="effect1_foregroundBlur_2016_1016"/>
</filter>
<filter id="filter1_i_2016_1016" x="14.7153" y="14.7148" width="24.5254" height="24.7979" filterUnits="userSpaceOnUse" color-interpolation-filters="sRGB">
<feFlood flood-opacity="0" result="BackgroundImageFix"/>
<feBlend mode="normal" in="SourceGraphic" in2="BackgroundImageFix" result="shape"/>
<feColorMatrix in="SourceAlpha" type="matrix" values="0 0 0 0 0 0 0 0 0 0 0 0 0 0 0 0 0 0 127 0" result="hardAlpha"/>
<feOffset dy="0.272504"/>
<feGaussianBlur stdDeviation="0.68126"/>
<feComposite in2="hardAlpha" operator="arithmetic" k2="-1" k3="1"/>
<feColorMatrix type="matrix" values="0 0 0 0 0 0 0 0 0 0 0 0 0 0 0 0 0 0 0.1 0"/>
<feBlend mode="normal" in2="shape" result="effect1_innerShadow_2016_1016"/>
</filter>
<linearGradient id="paint0_linear_2016_1016" x1="4.5814" y1="3.56992" x2="45.0405" y2="54.5008" gradientUnits="userSpaceOnUse">
<stop stop-color="#FBFBFC"/>
<stop offset="1" stop-color="#DBDDE8"/>
</linearGradient>
<linearGradient id="paint1_linear_2016_1016" x1="29.3405" y1="51.1465" x2="21.7727" y2="24.4728" gradientUnits="userSpaceOnUse">
<stop stop-color="#00D95F"/>
<stop offset="1" stop-color="#07FF74"/>
</linearGradient>
<linearGradient id="paint2_linear_2016_1016" x1="29.9755" y1="48.5056" x2="11.1728" y2="7.08496" gradientUnits="userSpaceOnUse">
<stop stop-color="#00D95F"/>
<stop offset="1" stop-color="#07FF74"/>
</linearGradient>
<clipPath id="clip0_2016_1016">
<rect width="24.5254" height="24.5254" fill="white" transform="translate(14.7153 14.7148)"/>
</clipPath>
</defs>
</svg>
