<svg width="159" height="170" viewBox="0 0 159 170" fill="none" xmlns="http://www.w3.org/2000/svg">
<circle cx="81.5" cy="80.5" r="70.5" fill="url(#paint0_linear_242_850)"/>
<circle cx="151.5" cy="16.5" r="7.5" fill="#077A98"/>
<circle cx="20" cy="15" r="9" fill="#077A98"/>
<circle cx="61.5" cy="165.5" r="4.5" fill="#077A98"/>
<circle cx="148" cy="144" r="3" fill="#077A98"/>
<circle cx="154.5" cy="105.5" r="2.5" fill="#077A98"/>
<circle cx="13.5" cy="142.5" r="4.5" fill="#077A98"/>
<circle cx="116.5" cy="152.5" r="1.5" fill="#077A98"/>
<circle cx="110" cy="3" r="3" fill="#077A98"/>
<circle cx="2" cy="86" r="2" fill="#077A98"/>
<path d="M104.45 54.498L115 65.048L76.1 103.998L55 82.873L65.55 72.323L76.1 82.873L104.45 54.498ZM104.45 61.498L76.1 89.898L65.55 79.473L62.025 82.873L76.1 96.923L107.975 65.048L104.45 61.498Z" fill="white"/>
<defs>
<linearGradient id="paint0_linear_242_850" x1="60" y1="97" x2="208" y2="89.5" gradientUnits="userSpaceOnUse">
<stop stop-color="#067A98"/>
<stop offset="1" stop-color="#BBB616"/>
</linearGradient>
</defs>
</svg>
